{"accessors":[{"bufferView":2,"byteOffset":0,"componentType":5126,"count":2736,"max":[1,0.835527777671814,0.7893137335777283,1],"min":[0.00005692175545846112,0.05284162983298302,0.0328759141266346,1],"name":"accessor_color_m0-PolyPaper8_-551712","type":"VEC4"},{"bufferView":0,"byteOffset":0,"componentType":5123,"count":4104,"max":[2735],"min":[0],"name":"accessor_indices_0_m0-PolyPaper8_-551712","type":"SCALAR"},{"bufferView":1,"byteOffset":32832,"componentType":5126,"count":2736,"max":[1,1,1],"min":[-1,-1,-1],"name":"accessor_normal_m0-PolyPaper8_-551712","type":"VEC3"},{"bufferView":1,"byteOffset":0,"componentType":5126,"count":2736,"max":[-1.824961,3.600035,1.330029],"min":[-1.920033,2.39996,0.04996613],"name":"accessor_position_m0-PolyPaper8_-551712","type":"VEC3"}],"asset":{"copyright":"Unknown","generator":"glTF 1-to-2 Upgrader for Google Blocks","version":"2.0"},"bufferViews":[{"buffer":0,"byteLength":8208,"byteOffset":0,"name":"ushortBufferView","target":34963},{"buffer":0,"byteLength":65664,"byteOffset":8208,"byteStride":12,"name":"vec3BufferView","target":34962},{"buffer":0,"byteLength":43776,"byteOffset":73872,"byteStride":16,"name":"vec4BufferView","target":34962}],"buffers":[{"byteLength":117648,"name":"model","uri":"data:application/octet-stream;base64,"}],"materials":[{"alphaMode":"OPAQUE","doubleSided":false,"name":"BlocksPaper","pbrMetallicRoughness":{"baseColorFactor":[1,1,1,1],"metallicFactor":0,"roughnessFactor":0.6}},{"alphaMode":"BLEND","doubleSided":false,"name":"BlocksGlass","pbrMetallicRoughness":{"baseColorFactor":[0.2,0.2,1,0.3],"metallicFactor":1,"roughnessFactor":0.4}},{"alphaMode":"OPAQUE","doubleSided":true,"name":"BlocksGem","pbrMetallicRoughness":{"baseColorFactor":[1,0.4,1,1],"metallicFactor":0,"roughnessFactor":0.1}}],"meshes":[{"name":"mesh_m0-PolyPaper8_-551712","primitives":[{"attributes":{"COLOR_0":0,"NORMAL":2,"POSITION":3},"indices":1,"material":0,"mode":4}]}],"nodes":[{"matrix":[1,0,0,0,0,1,0,0,0,0,1,0,0,0,0,1],"mesh":0,"name":"node_MeshObject1363077952-PolyPaper8"}],"scene":0,"scenes":[{"extras":{},"name":"defaultScene","nodes":[0]}]}